<svg width="136" height="133" viewBox="0 0 136 133" fill="none" xmlns="http://www.w3.org/2000/svg">
<path d="M66 108C95.8234 108 120 83.8234 120 54C120 24.1766 95.8234 0 66 0C36.1766 0 12 24.1766 12 54C12 83.8234 36.1766 108 66 108Z" fill="#E3E7EE"/>
<path d="M16.7964 114.207C8.12566 111.462 1.59998 99.5183 1.59998 85.2C1.59998 69.5859 9.36027 56.7956 19.2 55.6791V55.6H32.2421L32.9078 55.6742C32.6674 67.7487 35.088 78.4818 40.1695 87.8734C45.251 97.2651 54.4005 106.099 67.6179 114.375L16.7964 114.207H16.7964Z" fill="#00ADE2"/>
<path d="M8.19998 106.4C11.8451 106.4 14.8 97.0875 14.8 85.6C14.8 74.1125 11.8451 64.8 8.19998 64.8C4.5549 64.8 1.59998 74.1125 1.59998 85.6C1.59998 97.0875 4.5549 106.4 8.19998 106.4Z" fill="#0091D5"/>
<path fill-rule="evenodd" clip-rule="evenodd" d="M35.1263 114.8C26.1027 114.728 18.8 101.503 18.8 85.2C18.8 77.2927 20.5179 70.1095 23.3168 64.8H50.4329C47.1902 70.1095 45.2 77.2927 45.2 85.2C45.2 99.9573 52.132 112.192 61.2 114.433V114.799L35.1263 114.8Z" fill="white"/>
<path d="M49.4936 73.4946L49.4373 73.3841L53.5197 71.304L59.1492 82.3524L55.0667 84.4325L55.0104 84.322C53.4186 84.4884 51.2809 82.7695 49.9192 80.0969C48.5574 77.4243 48.4233 74.6846 49.4936 73.4946Z" fill="#0091D5"/>
<path d="M52.7704 78.6442C54.3249 81.6951 56.9415 83.4773 58.6146 82.6249C60.2877 81.7724 60.3838 78.608 58.8292 75.557C57.2747 72.5061 54.6582 70.7239 52.9851 71.5764C51.312 72.4289 51.2159 75.5932 52.7704 78.6442Z" fill="#00ADE2"/>
<path fill-rule="evenodd" clip-rule="evenodd" d="M58.0002 85.0496C58.0001 85.0997 58 85.1499 58 85.2C58 85.2502 58.0001 85.3003 58.0002 85.3504C58.043 100.901 64.7301 113.616 73.2 114.722V114.8H19.2V114.721C9.36027 113.604 1.59998 100.814 1.59998 85.2C1.59998 69.5859 9.36027 56.7956 19.2 55.6791V55.6H73.2V55.678C64.7301 56.7836 58.043 69.4987 58.0002 85.0496L58.0002 85.0496Z" stroke="#1C2C4C" stroke-width="2"/>
<path fill-rule="evenodd" clip-rule="evenodd" d="M35.1263 114.8C26.1027 114.728 18.8 101.503 18.8 85.2C18.8 77.2927 20.5179 70.1095 23.3168 64.8H50.4329C47.1902 70.1095 45.2 77.2927 45.2 85.2C45.2 99.9573 52.132 112.192 61.2 114.433V114.799L35.1263 114.8Z" stroke="#1C2C4C" stroke-width="2"/>
<path d="M74.4 114.8C83.4574 114.8 90.8 101.548 90.8 85.2C90.8 68.8524 83.4574 55.6 74.4 55.6C65.3425 55.6 58 68.8524 58 85.2C58 101.548 65.3425 114.8 74.4 114.8Z" stroke="#1C2C4C" stroke-width="2"/>
<path fill-rule="evenodd" clip-rule="evenodd" d="M121.38 78.649L121.385 78.6535L113.623 87.274L113.618 87.2695C106.23 94.9352 89.5614 91.4449 76.1035 79.3273C62.6455 67.2097 57.4319 50.9969 64.2834 42.8483L64.2784 42.8437L72.0403 34.2233L72.0453 34.2278C65.1938 42.3764 70.4074 58.5892 83.8654 70.7068C97.3234 82.8244 113.992 86.3148 121.38 78.649Z" fill="white"/>
<path d="M83.5977 71.004C97.2239 83.2731 114.142 86.6979 121.385 78.6535C128.628 70.6092 123.454 54.1418 109.828 41.8728C96.2015 29.6037 79.2835 26.1789 72.0403 34.2233C64.7971 42.2676 69.9715 58.735 83.5977 71.004Z" fill="white"/>
<path fill-rule="evenodd" clip-rule="evenodd" d="M71.6171 54.2875L63.9617 62.0141L61.35 55.9531V48.8602L63.9617 43.3328L69.0507 37.2V47.6L71.6171 54.2875Z" fill="#E3E7EE"/>
<path fill-rule="evenodd" clip-rule="evenodd" d="M103.438 36.9048C95.6988 34.774 88.7245 35.7125 84.7149 40.1657C77.4717 48.21 82.6462 64.6773 96.2723 76.9464C98.3414 78.8094 100.486 80.4684 102.662 81.9144C96.4201 80.196 89.6809 76.4814 83.5977 71.004C69.9715 58.735 64.7971 42.2676 72.0403 34.2233C78.1837 27.4004 91.2868 28.8281 103.438 36.9048Z" fill="#E3E7EE"/>
<path fill-rule="evenodd" clip-rule="evenodd" d="M121.38 78.649L121.385 78.6535L113.623 87.274L113.618 87.2695C106.23 94.9352 89.5615 91.4449 76.1035 79.3273C62.6455 67.2097 57.4319 50.9969 64.2834 42.8483L64.2784 42.8437L72.0403 34.2233L72.0453 34.2278C65.1938 42.3764 70.4075 58.5892 83.8654 70.7068C97.3234 82.8244 113.992 86.3148 121.38 78.649Z" stroke="#1C2C4C" stroke-width="2"/>
<path d="M83.5977 71.004C97.2239 83.2731 114.142 86.6979 121.385 78.6535C128.628 70.6092 123.454 54.1418 109.828 41.8728C96.2015 29.6037 79.2835 26.1789 72.0403 34.2233C64.7971 42.2676 69.9716 58.735 83.5977 71.004Z" stroke="#1C2C4C" stroke-width="2"/>
<path fill-rule="evenodd" clip-rule="evenodd" d="M86.8542 107.165L92.3654 98.3457L87.9556 95.5901C85.5201 94.0683 82.312 94.8089 80.7901 97.2444C79.2683 99.6799 80.0089 102.888 82.4444 104.41L86.8542 107.165Z" fill="white" stroke="#1C2C4C" stroke-width="2"/>
<path fill-rule="evenodd" clip-rule="evenodd" d="M86.8345 106.854L92.3457 98.0346L96.7556 100.79C99.191 102.312 99.9317 105.52 98.4098 107.956C96.888 110.391 93.6799 111.132 91.2444 109.61L86.8345 106.854Z" fill="#F99183" stroke="#1C2C4C" stroke-width="2"/>
<path fill-rule="evenodd" clip-rule="evenodd" d="M85.2 131.6V121.2H80C77.1281 121.2 74.8 123.528 74.8 126.4C74.8 129.272 77.1281 131.6 80 131.6H85.2Z" stroke="#1C2C4C" stroke-width="2"/>
<path fill-rule="evenodd" clip-rule="evenodd" d="M84.8 131.6V121.2H90C92.8719 121.2 95.2 123.528 95.2 126.4C95.2 129.272 92.8719 131.6 90 131.6H84.8Z" fill="#F99183" stroke="#1C2C4C" stroke-width="2"/>
<path d="M38.1054 82.3882L41.3581 79.1355L38.1054 82.3882ZM38.1054 82.3882L41.0752 85.3581L38.1054 82.3882ZM38.1054 82.3882L34.9941 85.4995L38.1054 82.3882ZM38.1054 82.3882L34.7113 78.9941L38.1054 82.3882Z" stroke="#1C2C4C" stroke-width="2"/>
<path d="M39.3054 104.788L42.5581 101.536L39.3054 104.788ZM39.3054 104.788L42.2752 107.758L39.3054 104.788ZM39.3054 104.788L36.1941 107.899L39.3054 104.788ZM39.3054 104.788L35.9112 101.394L39.3054 104.788Z" stroke="#1C2C4C" stroke-width="2"/>
<path d="M58.124 129.382H58V124.8H70.4V129.382H70.2759C69.7015 130.876 67.1995 132 64.2 132C61.2005 132 58.6984 130.876 58.124 129.382Z" fill="#0091D5"/>
<path d="M64.2 128.8C67.6241 128.8 70.4 127.278 70.4 125.4C70.4 123.522 67.6241 122 64.2 122C60.7758 122 58 123.522 58 125.4C58 127.278 60.7758 128.8 64.2 128.8Z" fill="#00ADE2"/>
<path d="M66.3157 104.137L66.2024 104.187L64.3388 100.001L75.6668 94.9579L77.5304 99.1436L77.4171 99.1941C77.4999 100.792 75.6715 102.837 72.9313 104.057C70.1911 105.277 67.4481 105.268 66.3157 104.137Z" fill="#0091D5"/>
<path d="M71.6298 101.134C74.7579 99.7411 76.6746 97.2215 75.9108 95.5061C75.1471 93.7906 71.9921 93.529 68.864 94.9218C65.7358 96.3145 63.8191 98.8342 64.5829 100.55C65.3466 102.265 68.5016 102.527 71.6298 101.134Z" fill="#00ADE2"/>
<path d="M44.2 8.79999V36.5078" stroke="#1C2C4C" stroke-width="2"/>
<path d="M54.6 6V21.8" stroke="#1C2C4C" stroke-width="2"/>
<path d="M66.6 6L66.3742 30.2" stroke="#1C2C4C" stroke-width="2"/>
<path d="M83 6V18.1" stroke="#1C2C4C" stroke-width="2"/>
</svg>
