<svg width="200" height="140" viewBox="0 0 200 140" fill="none" xmlns="http://www.w3.org/2000/svg">
<g clip-path="url(#clip0)">
<path d="M100 109.6C129.823 109.6 154 85.4234 154 55.6C154 25.7766 129.823 1.60001 100 1.60001C70.1766 1.60001 46 25.7766 46 55.6C46 85.4234 70.1766 109.6 100 109.6Z" fill="#E3E7EE"/>
<path fill-rule="evenodd" clip-rule="evenodd" d="M85.5906 42.8631C100.968 38.1618 115.697 41.7545 118.488 50.8876C121.106 59.4511 111.079 71.2349 95.702 75.936C80.3253 80.6371 65.597 77.0442 62.8048 67.9115C60.0127 58.7788 70.2132 47.5645 85.5906 42.8631Z" fill="white"/>
<path fill-rule="evenodd" clip-rule="evenodd" d="M75.1649 47.4673C72.7635 52.1691 72.0809 57.5042 73.646 62.6232C75.7991 69.6659 81.7077 74.6685 88.9936 76.5679C88.6771 76.9271 88.349 77.2789 88.0096 77.6229C75.6844 79.2632 65.1247 75.4995 62.8048 67.9116C60.7096 61.0584 65.9305 53.0331 75.1649 47.4673L75.1649 47.4673Z" fill="#E3E7EE"/>
<path fill-rule="evenodd" clip-rule="evenodd" d="M120.549 57.7255C122.548 66.2328 112.637 77.5867 97.6111 82.1806C82.5642 86.7809 68.145 83.4358 64.9178 74.7339L64.8929 74.7415L62.5137 66.9594L62.5217 66.957C65.4627 75.9459 80.0846 79.4571 95.3514 74.7895C110.611 70.1241 120.595 58.4849 118.188 49.9381L118.197 49.9354L120.576 57.7175L120.549 57.7255Z" fill="white"/>
<path fill-rule="evenodd" clip-rule="evenodd" d="M137.662 113.697C138.677 118.985 129.387 132.374 114.361 136.968C99.3143 141.568 84.2115 135.987 82.0298 130.705L83.5253 135.685L73.3106 102.275L73.3726 102.256C75.8398 107.333 89.2425 107.864 104.077 103.329C118.878 98.8035 129.579 90.5713 128.926 85.2712L128.994 85.2506L139.208 118.661L137.662 113.697Z" fill="#00ADE2"/>
<g style="mix-blend-mode:multiply" opacity="0.5">
<path fill-rule="evenodd" clip-rule="evenodd" d="M114.287 137.409C128.547 133.049 138.278 123.532 136.599 118.039C134.919 112.546 121.998 111.628 107.738 115.987C93.4777 120.347 83.2789 128.334 84.9582 133.827C86.6375 139.32 100.027 141.768 114.287 137.409Z" fill="#00ADE2"/>
</g>
<path d="M129.678 98.8228L133.632 111.756" stroke="white" stroke-width="4"/>
<path d="M134.005 112.976L134.473 114.506" stroke="white" stroke-width="4"/>
<path fill-rule="evenodd" clip-rule="evenodd" d="M68.0762 85.449C68.0762 85.449 81.7771 94.6451 100.309 88.9794C118.869 83.305 123.924 68.3745 123.924 68.3745L133.501 99.6985C133.501 99.6985 128.367 111.772 109.21 117.629C89.2007 123.746 77.6529 116.773 77.6529 116.773L68.0762 85.449Z" fill="white"/>
<path fill-rule="evenodd" clip-rule="evenodd" d="M87.5994 104.159C90.1344 103.383 92.5038 103.783 92.8913 105.05C93.2789 106.318 91.5377 107.974 89.0028 108.749C86.4678 109.524 84.0984 109.125 83.7108 107.857C83.3232 106.589 85.0644 104.934 87.5994 104.159ZM119.349 94.4518C121.884 93.6768 124.253 94.0759 124.641 95.3435C125.028 96.6112 123.287 98.267 120.752 99.042C118.217 99.8171 115.848 99.418 115.46 98.1503C115.073 96.8826 116.814 95.2268 119.349 94.4518Z" fill="#E7F7FC"/>
<path fill-rule="evenodd" clip-rule="evenodd" d="M120.549 57.7256C122.549 66.2328 112.637 77.5867 97.6112 82.1807C82.5643 86.781 68.145 83.4358 64.9178 74.7339L64.8929 74.7415L62.5137 66.9595L62.5218 66.957C65.4628 75.9459 80.0847 79.4571 95.3515 74.7896C110.611 70.1241 120.596 58.4849 118.188 49.9382L118.197 49.9355L120.576 57.7175L120.549 57.7256Z" stroke="#1C2C4C" stroke-width="2"/>
<path fill-rule="evenodd" clip-rule="evenodd" d="M85.2398 41.7156C100.617 37.0142 115.346 40.6069 118.137 49.74C120.755 58.3035 110.728 70.0873 95.3511 74.7884C79.9745 79.4895 65.2461 75.8967 62.454 66.764C59.6618 57.6313 69.8624 46.4169 85.2398 41.7156Z" stroke="#1C2C4C" stroke-width="2"/>
<path fill-rule="evenodd" clip-rule="evenodd" d="M137.3 112.513C139.299 121.02 129.387 132.374 114.361 136.968C99.3144 141.568 84.8951 138.223 81.6679 129.521L81.643 129.529L65.0073 75.1156L65.0693 75.0967C68.5615 83.5272 82.7777 86.7183 97.6119 82.183C112.413 77.6578 122.242 66.5738 120.623 58.1122L120.69 58.0916L137.326 112.505L137.3 112.513Z" stroke="#1C2C4C" stroke-width="2"/>
<path fill-rule="evenodd" clip-rule="evenodd" d="M67.9425 85.0118C67.9425 85.0118 81.6406 94.1987 100.172 88.533C118.734 82.8582 123.791 67.9373 123.791 67.9373L133.36 99.2372C133.36 99.2372 128.223 111.303 109.067 117.16C89.0574 123.278 77.5118 116.312 77.5118 116.312L67.9425 85.0118Z" stroke="#1C2C4C" stroke-width="2"/>
<path fill-rule="evenodd" clip-rule="evenodd" d="M99.5 104.5C99.5 104.5 101.692 109.142 106 108C112.287 106.333 110.222 100.17 110.222 100.17" stroke="#1C2C4C" stroke-width="2"/>
<path fill-rule="evenodd" clip-rule="evenodd" d="M90.7436 97.3414C91.2719 97.1799 91.9094 97.7341 92.1677 98.5791C92.4261 99.4241 92.2075 100.24 91.6792 100.402C91.151 100.563 90.5135 100.009 90.2551 99.1638C89.9968 98.3188 90.2154 97.5029 90.7436 97.3414ZM112.93 90.5583C113.458 90.3968 114.096 90.9511 114.354 91.796C114.612 92.641 114.394 93.457 113.865 93.6185C113.337 93.78 112.7 93.2258 112.441 92.3808C112.183 91.5358 112.402 90.7198 112.93 90.5583Z" stroke="#1C2C4C" stroke-width="2"/>
<path d="M156.415 83.1492L152.167 88.025L148.161 85.5871L153.784 77.6883L158.702 80.0586L156.415 83.1492Z" fill="#F99183"/>
<path d="M164.24 37.0977L156.64 39.9031L153.638 34.0664L163.034 30.1633L166.042 34.0664L164.24 37.0977Z" fill="#F99183"/>
<path d="M37.2828 40.4508L30.3969 36.0524L35.1945 28.8563L42.2773 34.6535L37.2828 40.4508Z" fill="#00ADE2"/>
<path d="M42.8734 68.3414L48.0148 61.2477L54.4445 66.2273L50.007 72.5258L42.8734 68.3414Z" fill="#F99183"/>
<path d="M131.084 30.5594L123.884 25.7297L128.682 19.0961L135.747 23.5539L131.084 30.5594Z" fill="#00ADE2"/>
<path d="M116.8 8C113.703 13.442 112.103 19.1754 112 25.2" stroke="#1C2C4C" stroke-width="2"/>
<path d="M79.6 8.79999C82.6966 14.242 84.2966 19.9753 84.4 26" stroke="#1C2C4C" stroke-width="2"/>
<path d="M107.189 27.6C109.397 27.9314 110.466 28.8912 110.397 30.4794C110.293 32.8618 108.637 33.5951 107.189 33.6C105.741 33.6049 104.311 32.3706 104.404 30.4794C104.466 29.2186 104.775 28.5163 105.33 28.3726" stroke="#1C2C4C" stroke-width="2"/>
<path d="M143.989 59.2C146.197 59.5314 147.266 60.4912 147.197 62.0794C147.093 64.4618 145.437 65.1951 143.989 65.2C142.541 65.2049 141.111 63.9706 141.204 62.0794C141.266 60.8186 141.575 60.1164 142.13 59.9726" stroke="#1C2C4C" stroke-width="2"/>
<path d="M147.589 99.2C149.797 99.5314 150.866 100.491 150.797 102.079C150.693 104.462 149.037 105.195 147.589 105.2C146.141 105.205 144.711 103.971 144.804 102.079C144.866 100.819 145.175 100.116 145.73 99.9726" stroke="#1C2C4C" stroke-width="2"/>
<path d="M58.7893 10C60.9968 10.3314 62.066 11.2912 61.9968 12.8794C61.8931 15.2618 60.2374 15.9951 58.7893 16C57.3411 16.0049 55.9115 14.7706 56.0043 12.8794C56.0662 11.6186 56.3749 10.9163 56.9304 10.7725" stroke="#1C2C4C" stroke-width="2"/>
<path d="M27.9893 56C30.1968 56.3314 31.266 57.2912 31.1968 58.8794C31.0931 61.2618 29.4374 61.9951 27.9893 62C26.5411 62.0049 25.1115 60.7706 25.2043 58.8794C25.2662 57.6186 25.5749 56.9163 26.1304 56.7725" stroke="#1C2C4C" stroke-width="2"/>
<path d="M32.7893 83.6C34.9968 83.9314 36.066 84.8912 35.9968 86.4794C35.8931 88.8618 34.2374 89.5951 32.7893 89.6C31.3411 89.6049 29.9115 88.3706 30.0043 86.4794C30.0662 85.2186 30.3749 84.5163 30.9304 84.3726" stroke="#1C2C4C" stroke-width="2"/>
<path d="M152 22.4C145.977 25.8842 140.911 29.6175 136.8 33.6" stroke="#1C2C4C" stroke-width="2"/>
<path d="M161.6 46.4C152.016 46.8124 145.616 48.0124 142.4 50" stroke="#1C2C4C" stroke-width="2"/>
<path d="M49.6 25.2C55.3095 28.855 59.7095 33.255 62.8 38.4" stroke="#1C2C4C" stroke-width="2"/>
<path d="M38 49.3685C43.3208 48.7983 49.7208 49.6755 57.2 52" stroke="#1C2C4C" stroke-width="2"/>
<path d="M166 34.724L162.983 29.6L153.6 33.9096L156.518 40L164.14 36.6789" stroke="#1C2C4C" stroke-width="2"/>
<path d="M157.6 79.7844L153.139 77.2L147.6 85.1112L151.836 88L156.681 82.6" stroke="#1C2C4C" stroke-width="2"/>
<path d="M47.7374 61.2L42.8 67.9957L49.5957 72.9331L54.5331 66.1374L47.7374 61.2Z" stroke="#1C2C4C" stroke-width="2"/>
<path d="M128.937 18.4L124 25.1957L130.796 30.1331L135.733 23.3374L128.937 18.4Z" stroke="#1C2C4C" stroke-width="2"/>
<path d="M35.3374 28.8L30.4 35.5958L37.1957 40.5332L42.1331 33.7374L35.3374 28.8Z" stroke="#1C2C4C" stroke-width="2"/>
</g>
<defs>
<clipPath id="clip0">
<rect width="200" height="140" fill="white"/>
</clipPath>
</defs>
</svg>
